<?xml version="1.0" encoding="utf-8"?>
<svg xmlns="http://www.w3.org/2000/svg" xmlns:xlink="http://www.w3.org/1999/xlink" style="margin: auto; background: none; display: block; shape-rendering: auto;" width="84px" height="84px" viewBox="0 0 100 100" preserveAspectRatio="xMidYMid">
<g transform="translate(50 50)">
<g>
<animateTransform attributeName="transform" type="rotate" values="0;32.72727272727273" keyTimes="0;1" dur="0.36101083032490977s" repeatCount="indefinite"></animateTransform><path d="M27.349588662354684 -6 L38.349588662354684 -6 L38.349588662354684 6 L27.349588662354684 6 A28 28 0 0 1 26.251782988419087 9.738782774502694 L26.251782988419087 9.738782774502694 L35.50557184956208 15.685831766514266 L29.017882040094907 25.780874160488445 L19.764093178951914 19.83382516847687 A28 28 0 0 1 16.81922170189543 22.385570829051687 L16.81922170189543 22.385570829051687 L21.388786844916183 32.39152277795139 L10.473202900661963 37.376502933974024 L5.903637757641211 27.370550985074324 A28 28 0 0 1 2.0466763639617174 27.925098314262037 L2.0466763639617174 27.925098314262037 L0.4812131429555824 38.813134174952296 L-11.396644159615606 37.105356115672876 L-9.83118093860947 26.217320254982617 A28 28 0 0 1 -13.375674258405684 24.598604394010316 L-13.375674258405684 24.598604394010316 L-20.57914233180382 32.91184971190716 L-29.648137224054924 25.053520904563733 L-22.44466915065679 16.74027558666689 A28 28 0 0 1 -24.551342811727462 13.462227384093548 L-24.551342811727462 13.462227384093548 L-35.10576552148693 16.561285509349275 L-38.486556203584094 5.0473698259752995 L-27.932133493824622 1.9483117007195738 A28 28 0 0 1 -27.932133493824622 -1.948311700719567 L-27.932133493824622 -1.948311700719567 L-38.486556203584094 -5.047369825975291 L-35.105765521486944 -16.56128550934927 L-24.55134281172747 -13.462227384093543 A28 28 0 0 1 -22.444669150656793 -16.740275586666883 L-22.444669150656793 -16.740275586666883 L-29.648137224054935 -25.05352090456372 L-20.57914233180384 -32.911849711907145 L-13.3756742584057 -24.598604394010305 A28 28 0 0 1 -9.831180938609483 -26.217320254982614 L-9.831180938609483 -26.217320254982614 L-11.39664415961562 -37.105356115672876 L0.48121314295557904 -38.813134174952296 L2.046676363961717 -27.925098314262037 A28 28 0 0 1 5.903637757641192 -27.370550985074328 L5.903637757641192 -27.370550985074328 L10.473202900661938 -37.37650293397403 L21.388786844916165 -32.391522777951394 L16.81922170189542 -22.38557082905169 A28 28 0 0 1 19.76409317895191 -19.83382516847687 L19.76409317895191 -19.83382516847687 L29.017882040094904 -25.780874160488445 L35.50557184956208 -15.68583176651426 L26.251782988419087 -9.738782774502688 A28 28 0 0 1 27.349588662354684 -6.00000000000001 M0 -17A17 17 0 1 0 0 17 A17 17 0 1 0 0 -17" fill="#31e519"></path></g></g>
<!-- [ldio] generated by https://loading.io/ --></svg>